<mxfile host="app.diagrams.net" modified="2020-11-23T15:45:24.218Z" agent="5.0 (Windows NT 10.0; Win64; x64) AppleWebKit/537.36 (KHTML, like Gecko) Chrome/87.0.4280.66 Safari/537.36" etag="H2oVoCSmVLErbaMmBJTe" version="13.10.1" type="gitlab">
  <diagram id="kgpKYQtTHZ0yAKxKKP6v" name="Page-1">
    <mxGraphModel dx="1110" dy="652" grid="0" gridSize="10" guides="1" tooltips="1" connect="1" arrows="1" fold="1" page="1" pageScale="1" pageWidth="850" pageHeight="1400" background="#ffffff" math="0" shadow="0" extFonts="Permanent Marker^https://fonts.googleapis.com/css?family=Permanent+Marker">
      <root>
        <mxCell id="0" />
        <mxCell id="1" parent="0" />
        <mxCell id="LkClCWV3-tZvklI0jkfO-49" value="* Début de Partie *&amp;nbsp;&lt;br&gt;Player" style="shape=umlFrame;whiteSpace=wrap;html=1;fillColor=none;width=138;height=48;" parent="1" vertex="1">
          <mxGeometry x="7" y="184.5" width="666" height="382.5" as="geometry" />
        </mxCell>
        <mxCell id="LkClCWV3-tZvklI0jkfO-59" value="* Début de Partie *&amp;nbsp;&lt;br&gt;Guest" style="shape=umlFrame;whiteSpace=wrap;html=1;fillColor=none;width=140;height=48;" parent="1" vertex="1">
          <mxGeometry x="7" y="599" width="665" height="309" as="geometry" />
        </mxCell>
        <mxCell id="LkClCWV3-tZvklI0jkfO-1" value="Individu" style="shape=umlActor;verticalLabelPosition=bottom;verticalAlign=top;html=1;outlineConnect=0;" parent="1" vertex="1">
          <mxGeometry x="173" y="7" width="30" height="60" as="geometry" />
        </mxCell>
        <mxCell id="LkClCWV3-tZvklI0jkfO-6" value="" style="endArrow=none;dashed=1;html=1;" parent="1" edge="1">
          <mxGeometry width="50" height="50" relative="1" as="geometry">
            <mxPoint x="183" y="992" as="sourcePoint" />
            <mxPoint x="183" y="97" as="targetPoint" />
          </mxGeometry>
        </mxCell>
        <mxCell id="LkClCWV3-tZvklI0jkfO-10" value="" style="endArrow=none;dashed=1;html=1;" parent="1" edge="1">
          <mxGeometry width="50" height="50" relative="1" as="geometry">
            <mxPoint x="368" y="154" as="sourcePoint" />
            <mxPoint x="368" y="77" as="targetPoint" />
          </mxGeometry>
        </mxCell>
        <mxCell id="LkClCWV3-tZvklI0jkfO-12" value="" style="endArrow=none;dashed=1;html=1;" parent="1" source="NwIOa7d9pvwit4-bKOf0-10" edge="1">
          <mxGeometry width="50" height="50" relative="1" as="geometry">
            <mxPoint x="368" y="641.5" as="sourcePoint" />
            <mxPoint x="368" y="167.5" as="targetPoint" />
          </mxGeometry>
        </mxCell>
        <mxCell id="LkClCWV3-tZvklI0jkfO-13" value=":Base de données" style="rounded=0;whiteSpace=wrap;html=1;" parent="1" vertex="1">
          <mxGeometry x="578" y="36" width="80" height="50" as="geometry" />
        </mxCell>
        <mxCell id="LkClCWV3-tZvklI0jkfO-15" value="" style="endArrow=none;dashed=1;html=1;" parent="1" edge="1">
          <mxGeometry width="50" height="50" relative="1" as="geometry">
            <mxPoint x="618" y="241" as="sourcePoint" />
            <mxPoint x="618" y="85" as="targetPoint" />
          </mxGeometry>
        </mxCell>
        <mxCell id="LkClCWV3-tZvklI0jkfO-17" value="" style="endArrow=none;dashed=1;html=1;" parent="1" edge="1">
          <mxGeometry width="50" height="50" relative="1" as="geometry">
            <mxPoint x="613" y="1013" as="sourcePoint" />
            <mxPoint x="618" y="301.5" as="targetPoint" />
          </mxGeometry>
        </mxCell>
        <mxCell id="LkClCWV3-tZvklI0jkfO-18" value=":Systeme" style="rounded=0;whiteSpace=wrap;html=1;" parent="1" vertex="1">
          <mxGeometry x="328" y="33" width="80" height="50" as="geometry" />
        </mxCell>
        <mxCell id="LkClCWV3-tZvklI0jkfO-30" value="Play()" style="verticalAlign=bottom;endArrow=block;shadow=0;strokeWidth=1;" parent="1" edge="1">
          <mxGeometry relative="1" as="geometry">
            <mxPoint x="183" y="209.5" as="sourcePoint" />
            <mxPoint x="368" y="209.5" as="targetPoint" />
            <Array as="points" />
            <mxPoint as="offset" />
          </mxGeometry>
        </mxCell>
        <mxCell id="LkClCWV3-tZvklI0jkfO-31" value="return" style="verticalAlign=bottom;endArrow=open;dashed=1;endSize=8;shadow=0;strokeWidth=1;" parent="1" source="NwIOa7d9pvwit4-bKOf0-10" edge="1">
          <mxGeometry relative="1" as="geometry">
            <mxPoint x="183" y="249.5" as="targetPoint" />
            <mxPoint x="613" y="249.5" as="sourcePoint" />
          </mxGeometry>
        </mxCell>
        <mxCell id="NwIOa7d9pvwit4-bKOf0-5" value="" style="endArrow=none;dashed=1;html=1;" parent="1" edge="1">
          <mxGeometry width="50" height="50" relative="1" as="geometry">
            <mxPoint x="618" y="307.5" as="sourcePoint" />
            <mxPoint x="618" y="156" as="targetPoint" />
          </mxGeometry>
        </mxCell>
        <mxCell id="NwIOa7d9pvwit4-bKOf0-10" value="" style="points=[];perimeter=orthogonalPerimeter;rounded=0;shadow=0;strokeWidth=1;" parent="1" vertex="1">
          <mxGeometry x="363" y="211.5" width="10" height="40" as="geometry" />
        </mxCell>
        <mxCell id="NwIOa7d9pvwit4-bKOf0-11" value="" style="endArrow=none;dashed=1;html=1;" parent="1" source="NwIOa7d9pvwit4-bKOf0-14" target="NwIOa7d9pvwit4-bKOf0-10" edge="1">
          <mxGeometry width="50" height="50" relative="1" as="geometry">
            <mxPoint x="368" y="501.5" as="sourcePoint" />
            <mxPoint x="368" y="167.5" as="targetPoint" />
          </mxGeometry>
        </mxCell>
        <mxCell id="NwIOa7d9pvwit4-bKOf0-12" value="ChooseGame()" style="verticalAlign=bottom;endArrow=block;shadow=0;strokeWidth=1;entryX=0.2;entryY=0.02;entryDx=0;entryDy=0;entryPerimeter=0;" parent="1" target="NwIOa7d9pvwit4-bKOf0-14" edge="1">
          <mxGeometry relative="1" as="geometry">
            <mxPoint x="183" y="275.5" as="sourcePoint" />
            <mxPoint x="368" y="335.5" as="targetPoint" />
            <Array as="points" />
            <mxPoint as="offset" />
          </mxGeometry>
        </mxCell>
        <mxCell id="NwIOa7d9pvwit4-bKOf0-13" value="return" style="verticalAlign=bottom;endArrow=open;dashed=1;endSize=8;shadow=0;strokeWidth=1;" parent="1" source="NwIOa7d9pvwit4-bKOf0-14" edge="1">
          <mxGeometry relative="1" as="geometry">
            <mxPoint x="183" y="323.5" as="targetPoint" />
            <mxPoint x="613" y="375.5" as="sourcePoint" />
          </mxGeometry>
        </mxCell>
        <mxCell id="NwIOa7d9pvwit4-bKOf0-15" value="InitGame(ChosenGame)" style="verticalAlign=bottom;endArrow=block;entryX=0.225;entryY=-0.028;shadow=0;strokeWidth=1;entryDx=0;entryDy=0;entryPerimeter=0;" parent="1" edge="1" target="LkClCWV3-tZvklI0jkfO-35">
          <mxGeometry relative="1" as="geometry">
            <mxPoint x="372" y="519.5" as="sourcePoint" />
            <mxPoint x="617" y="363.5000000000001" as="targetPoint" />
          </mxGeometry>
        </mxCell>
        <mxCell id="NwIOa7d9pvwit4-bKOf0-16" value="return" style="verticalAlign=bottom;endArrow=open;dashed=1;endSize=8;exitX=0.066;exitY=0.934;shadow=0;strokeWidth=1;exitDx=0;exitDy=0;exitPerimeter=0;" parent="1" edge="1" source="LkClCWV3-tZvklI0jkfO-35">
          <mxGeometry relative="1" as="geometry">
            <mxPoint x="372" y="551.5" as="targetPoint" />
            <mxPoint x="612" y="394.7999999999998" as="sourcePoint" />
          </mxGeometry>
        </mxCell>
        <mxCell id="NwIOa7d9pvwit4-bKOf0-17" value="" style="points=[];perimeter=orthogonalPerimeter;rounded=0;shadow=0;strokeWidth=1;" parent="1" vertex="1">
          <mxGeometry x="364" y="345.5" width="10" height="49" as="geometry" />
        </mxCell>
        <mxCell id="NwIOa7d9pvwit4-bKOf0-18" value="" style="endArrow=none;dashed=1;html=1;" parent="1" target="NwIOa7d9pvwit4-bKOf0-17" edge="1">
          <mxGeometry width="50" height="50" relative="1" as="geometry">
            <mxPoint x="368" y="996" as="sourcePoint" />
            <mxPoint x="368" y="303.5" as="targetPoint" />
          </mxGeometry>
        </mxCell>
        <mxCell id="NwIOa7d9pvwit4-bKOf0-19" value="InitEmptyGame()" style="verticalAlign=bottom;endArrow=block;shadow=0;strokeWidth=1;" parent="1" edge="1" target="NwIOa7d9pvwit4-bKOf0-17">
          <mxGeometry relative="1" as="geometry">
            <mxPoint x="187" y="345.5" as="sourcePoint" />
            <mxPoint x="363" y="409.5" as="targetPoint" />
            <Array as="points" />
            <mxPoint as="offset" />
          </mxGeometry>
        </mxCell>
        <mxCell id="NwIOa7d9pvwit4-bKOf0-20" value="return" style="verticalAlign=bottom;endArrow=open;dashed=1;endSize=8;shadow=0;strokeWidth=1;" parent="1" edge="1" source="NwIOa7d9pvwit4-bKOf0-17">
          <mxGeometry relative="1" as="geometry">
            <mxPoint x="187" y="394.5" as="targetPoint" />
            <mxPoint x="360" y="451.5" as="sourcePoint" />
          </mxGeometry>
        </mxCell>
        <mxCell id="TH6nzmVZ2wGRoc9XE--y-47" value="" style="points=[];perimeter=orthogonalPerimeter;rounded=0;shadow=0;strokeWidth=1;" parent="1" vertex="1">
          <mxGeometry x="613" y="115" width="10" height="33" as="geometry" />
        </mxCell>
        <mxCell id="TH6nzmVZ2wGRoc9XE--y-48" value="getConnexion()" style="verticalAlign=bottom;endArrow=block;entryX=0;entryY=0;shadow=0;strokeWidth=1;" parent="1" edge="1">
          <mxGeometry relative="1" as="geometry">
            <mxPoint x="370" y="117" as="sourcePoint" />
            <mxPoint x="615" y="117" as="targetPoint" />
          </mxGeometry>
        </mxCell>
        <mxCell id="TH6nzmVZ2wGRoc9XE--y-49" value="return" style="verticalAlign=bottom;endArrow=open;dashed=1;endSize=8;exitX=0;exitY=0.95;shadow=0;strokeWidth=1;entryX=1;entryY=0.9;entryDx=0;entryDy=0;entryPerimeter=0;" parent="1" edge="1">
          <mxGeometry relative="1" as="geometry">
            <mxPoint x="370" y="148" as="targetPoint" />
            <mxPoint x="610" y="148.29999999999973" as="sourcePoint" />
          </mxGeometry>
        </mxCell>
        <mxCell id="TH6nzmVZ2wGRoc9XE--y-53" value="" style="endArrow=none;dashed=1;html=1;" parent="1" edge="1">
          <mxGeometry width="50" height="50" relative="1" as="geometry">
            <mxPoint x="368" y="238" as="sourcePoint" />
            <mxPoint x="368" y="156" as="targetPoint" />
          </mxGeometry>
        </mxCell>
        <mxCell id="NwIOa7d9pvwit4-bKOf0-14" value="" style="points=[];perimeter=orthogonalPerimeter;rounded=0;shadow=0;strokeWidth=1;" parent="1" vertex="1">
          <mxGeometry x="362" y="274.5" width="10" height="49" as="geometry" />
        </mxCell>
        <mxCell id="k9Gw3ZZN24IDvO-PCEg5-2" value="" style="endArrow=none;dashed=1;html=1;" edge="1" parent="1" source="NwIOa7d9pvwit4-bKOf0-17" target="NwIOa7d9pvwit4-bKOf0-14">
          <mxGeometry width="50" height="50" relative="1" as="geometry">
            <mxPoint x="368" y="405.5" as="sourcePoint" />
            <mxPoint x="368" y="251.5" as="targetPoint" />
          </mxGeometry>
        </mxCell>
        <mxCell id="k9Gw3ZZN24IDvO-PCEg5-9" value="Connexion()" style="verticalAlign=bottom;endArrow=block;entryX=0;entryY=0;shadow=0;strokeWidth=1;" edge="1" parent="1">
          <mxGeometry relative="1" as="geometry">
            <mxPoint x="184" y="425.5" as="sourcePoint" />
            <mxPoint x="364" y="425.5000000000001" as="targetPoint" />
          </mxGeometry>
        </mxCell>
        <mxCell id="k9Gw3ZZN24IDvO-PCEg5-10" value="return" style="verticalAlign=bottom;endArrow=open;dashed=1;endSize=8;shadow=0;strokeWidth=1;entryX=1.2;entryY=0.714;entryDx=0;entryDy=0;entryPerimeter=0;" edge="1" parent="1">
          <mxGeometry relative="1" as="geometry">
            <mxPoint x="376" y="466.4820000000001" as="targetPoint" />
            <mxPoint x="614" y="466.4820000000001" as="sourcePoint" />
          </mxGeometry>
        </mxCell>
        <mxCell id="k9Gw3ZZN24IDvO-PCEg5-11" value="CheckAccountCredentials()" style="verticalAlign=bottom;endArrow=block;shadow=0;strokeWidth=1;" edge="1" parent="1">
          <mxGeometry relative="1" as="geometry">
            <mxPoint x="374" y="434.5" as="sourcePoint" />
            <mxPoint x="617" y="434.5" as="targetPoint" />
          </mxGeometry>
        </mxCell>
        <mxCell id="k9Gw3ZZN24IDvO-PCEg5-12" value="return" style="verticalAlign=bottom;endArrow=open;dashed=1;endSize=8;exitX=0;exitY=0.95;shadow=0;strokeWidth=1;" edge="1" parent="1">
          <mxGeometry relative="1" as="geometry">
            <mxPoint x="184" y="481.5000000000001" as="targetPoint" />
            <mxPoint x="364" y="481.49999999999966" as="sourcePoint" />
          </mxGeometry>
        </mxCell>
        <mxCell id="k9Gw3ZZN24IDvO-PCEg5-13" value="" style="points=[];perimeter=orthogonalPerimeter;rounded=0;shadow=0;strokeWidth=1;" vertex="1" parent="1">
          <mxGeometry x="614" y="433" width="10" height="40" as="geometry" />
        </mxCell>
        <mxCell id="k9Gw3ZZN24IDvO-PCEg5-14" value="" style="points=[];perimeter=orthogonalPerimeter;rounded=0;shadow=0;strokeWidth=1;" vertex="1" parent="1">
          <mxGeometry x="364" y="421.5" width="10" height="63" as="geometry" />
        </mxCell>
        <mxCell id="LkClCWV3-tZvklI0jkfO-35" value="" style="points=[];perimeter=orthogonalPerimeter;rounded=0;shadow=0;strokeWidth=1;" parent="1" vertex="1">
          <mxGeometry x="615" y="520.5" width="10" height="33" as="geometry" />
        </mxCell>
        <mxCell id="k9Gw3ZZN24IDvO-PCEg5-17" value="Play()" style="verticalAlign=bottom;endArrow=block;shadow=0;strokeWidth=1;" edge="1" parent="1">
          <mxGeometry relative="1" as="geometry">
            <mxPoint x="182" y="618" as="sourcePoint" />
            <mxPoint x="367" y="618" as="targetPoint" />
            <Array as="points" />
            <mxPoint as="offset" />
          </mxGeometry>
        </mxCell>
        <mxCell id="k9Gw3ZZN24IDvO-PCEg5-18" value="return" style="verticalAlign=bottom;endArrow=open;dashed=1;endSize=8;shadow=0;strokeWidth=1;" edge="1" parent="1" source="k9Gw3ZZN24IDvO-PCEg5-19">
          <mxGeometry relative="1" as="geometry">
            <mxPoint x="182" y="658" as="targetPoint" />
            <mxPoint x="612" y="658" as="sourcePoint" />
          </mxGeometry>
        </mxCell>
        <mxCell id="k9Gw3ZZN24IDvO-PCEg5-19" value="" style="points=[];perimeter=orthogonalPerimeter;rounded=0;shadow=0;strokeWidth=1;" vertex="1" parent="1">
          <mxGeometry x="362" y="620" width="10" height="40" as="geometry" />
        </mxCell>
        <mxCell id="k9Gw3ZZN24IDvO-PCEg5-21" value="ChooseGame()" style="verticalAlign=bottom;endArrow=block;shadow=0;strokeWidth=1;entryX=0.2;entryY=0.02;entryDx=0;entryDy=0;entryPerimeter=0;" edge="1" parent="1" target="k9Gw3ZZN24IDvO-PCEg5-29">
          <mxGeometry relative="1" as="geometry">
            <mxPoint x="182" y="684" as="sourcePoint" />
            <mxPoint x="367" y="744" as="targetPoint" />
            <Array as="points" />
            <mxPoint as="offset" />
          </mxGeometry>
        </mxCell>
        <mxCell id="k9Gw3ZZN24IDvO-PCEg5-22" value="return" style="verticalAlign=bottom;endArrow=open;dashed=1;endSize=8;shadow=0;strokeWidth=1;" edge="1" parent="1" source="k9Gw3ZZN24IDvO-PCEg5-29">
          <mxGeometry relative="1" as="geometry">
            <mxPoint x="182" y="732" as="targetPoint" />
            <mxPoint x="612" y="784" as="sourcePoint" />
          </mxGeometry>
        </mxCell>
        <mxCell id="k9Gw3ZZN24IDvO-PCEg5-23" value="InitGame(ChosenGame)" style="verticalAlign=bottom;endArrow=block;entryX=0.225;entryY=-0.028;shadow=0;strokeWidth=1;entryDx=0;entryDy=0;entryPerimeter=0;" edge="1" parent="1" target="k9Gw3ZZN24IDvO-PCEg5-37">
          <mxGeometry relative="1" as="geometry">
            <mxPoint x="366" y="830" as="sourcePoint" />
            <mxPoint x="611" y="674.0000000000001" as="targetPoint" />
          </mxGeometry>
        </mxCell>
        <mxCell id="k9Gw3ZZN24IDvO-PCEg5-24" value="return" style="verticalAlign=bottom;endArrow=open;dashed=1;endSize=8;exitX=0.066;exitY=0.934;shadow=0;strokeWidth=1;exitDx=0;exitDy=0;exitPerimeter=0;" edge="1" parent="1" source="k9Gw3ZZN24IDvO-PCEg5-37">
          <mxGeometry relative="1" as="geometry">
            <mxPoint x="366" y="862" as="targetPoint" />
            <mxPoint x="606" y="705.2999999999997" as="sourcePoint" />
          </mxGeometry>
        </mxCell>
        <mxCell id="k9Gw3ZZN24IDvO-PCEg5-25" value="" style="points=[];perimeter=orthogonalPerimeter;rounded=0;shadow=0;strokeWidth=1;" vertex="1" parent="1">
          <mxGeometry x="363" y="754" width="10" height="49" as="geometry" />
        </mxCell>
        <mxCell id="k9Gw3ZZN24IDvO-PCEg5-27" value="InitEmptyGame()" style="verticalAlign=bottom;endArrow=block;shadow=0;strokeWidth=1;" edge="1" parent="1" target="k9Gw3ZZN24IDvO-PCEg5-25">
          <mxGeometry relative="1" as="geometry">
            <mxPoint x="186" y="754" as="sourcePoint" />
            <mxPoint x="362" y="818" as="targetPoint" />
            <Array as="points" />
            <mxPoint as="offset" />
          </mxGeometry>
        </mxCell>
        <mxCell id="k9Gw3ZZN24IDvO-PCEg5-28" value="return" style="verticalAlign=bottom;endArrow=open;dashed=1;endSize=8;shadow=0;strokeWidth=1;" edge="1" parent="1" source="k9Gw3ZZN24IDvO-PCEg5-25">
          <mxGeometry relative="1" as="geometry">
            <mxPoint x="186" y="803" as="targetPoint" />
            <mxPoint x="359" y="860" as="sourcePoint" />
          </mxGeometry>
        </mxCell>
        <mxCell id="k9Gw3ZZN24IDvO-PCEg5-29" value="" style="points=[];perimeter=orthogonalPerimeter;rounded=0;shadow=0;strokeWidth=1;" vertex="1" parent="1">
          <mxGeometry x="361" y="683" width="10" height="49" as="geometry" />
        </mxCell>
        <mxCell id="k9Gw3ZZN24IDvO-PCEg5-37" value="" style="points=[];perimeter=orthogonalPerimeter;rounded=0;shadow=0;strokeWidth=1;" vertex="1" parent="1">
          <mxGeometry x="609" y="831" width="10" height="33" as="geometry" />
        </mxCell>
      </root>
    </mxGraphModel>
  </diagram>
</mxfile>
